HIERARCHY
ROOT root     
{
	OFFSET 0.0000 0.0000 0.0000
	CHANNELS 6 Xposition Yposition Zposition Zrotation Yrotation Xrotation
	JOINT pelvis   
	{
		OFFSET 0.0000 0.0000 0.0000
		CHANNELS 3 Zrotation Yrotation Xrotation
		JOINT thorax   
		{
			OFFSET 0.0000 23.0750 -5.0000
			CHANNELS 3 Zrotation Yrotation Xrotation
			JOINT rclavicle
			{
				OFFSET 0.0000 28.0009 0.0000
				CHANNELS 3 Zrotation Yrotation Xrotation
				JOINT rhumerus 
				{
					OFFSET -18.5725 5.5939 0.0000
					CHANNELS 3 Zrotation Yrotation Xrotation
					JOINT rradius  
					{
						OFFSET -24.8459 0.0000 0.0000
						CHANNELS 3 Zrotation Yrotation Xrotation
						JOINT rhand    
						{
							OFFSET -24.5477 0.0000 0.0000
							CHANNELS 3 Zrotation Yrotation Xrotation
							End Site
							{
								OFFSET -8.1826 0.0000 0.0000
							}
						}
					}
				}
			}
			JOINT lclavicle
			{
				OFFSET 0.0000 28.0009 0.0000
				CHANNELS 3 Zrotation Yrotation Xrotation
				JOINT lhumerus 
				{
					OFFSET 18.5725 5.5939 0.0000
					CHANNELS 3 Zrotation Yrotation Xrotation
					JOINT lradius  
					{
						OFFSET 24.8459 0.0000 0.0000
						CHANNELS 3 Zrotation Yrotation Xrotation
						JOINT lhand    
						{
							OFFSET 24.5477 0.0000 0.0000
							CHANNELS 3 Zrotation Yrotation Xrotation
							End Site
							{
								OFFSET 8.1826 0.0000 0.0000
							}
						}
					}
				}
			}
			JOINT head     
			{
				OFFSET 0.0000 35.2030 0.0000
				CHANNELS 3 Zrotation Yrotation Xrotation
				End Site
				{
					OFFSET 0.0000 11.7343 0.0000
				}
			}
		}
		JOINT rfemur   
		{
			OFFSET -8.2817 0.0000 0.0000
			CHANNELS 3 Zrotation Yrotation Xrotation
			JOINT rtibia   
			{
				OFFSET 0.0000 -43.3627 0.0000
				CHANNELS 3 Zrotation Yrotation Xrotation
				JOINT rfoot    
				{
					OFFSET 0.0000 -38.2947 0.0000
					CHANNELS 3 Zrotation Yrotation Xrotation
					JOINT rtoes    
					{
						OFFSET 0.0000 0.0000 16.6054
						CHANNELS 3 Zrotation Yrotation Xrotation
						End Site
						{
							OFFSET 0.0000 0.0000 5.5351
						}
					}
				}
			}
		}
		JOINT lfemur   
		{
			OFFSET 8.2817 0.0000 0.0000
			CHANNELS 3 Zrotation Yrotation Xrotation
			JOINT ltibia   
			{
				OFFSET 0.0000 -43.3627 0.0000
				CHANNELS 3 Zrotation Yrotation Xrotation
				JOINT lfoot    
				{
					OFFSET 0.0000 -38.2947 0.0000
					CHANNELS 3 Zrotation Yrotation Xrotation
					JOINT ltoes    
					{
						OFFSET 0.0000 0.0000 16.6054
						CHANNELS 3 Zrotation Yrotation Xrotation
						End Site
						{
							OFFSET 0.0000 0.0000 5.5351
						}
					}
				}
			}
		}
	}
}
MOTION
Frames: 21
Frame Time: .0333333
96.351 69.4 14.585 119.431 -88.5283 -47.9933 0 -0 0 -2.0131 -8.08723 18.5644 18.5712 -12.6215 6.52473e-05 57.1915 -26.4669 -39.5552 -0 4.6709 -0 -0.482003 20.3701 -0.0866011 -12.9472 18.3753 0.000125291 -63.2577 24.5864 -21.6903 4.97241e-08 -9.3237 -6.09776e-07 6.89398 -6.91545 -0.417096 3.63573 2.27918 -45.1547 11.9073 -7.33412 -115.046 -0 -0 76.4199 6.48775e-06 -3.63344 -15.7914 0.990017 3.09856e-06 -58.4346 -12.835 2.15784 -113.987 -0 -0 76.531 -3.39046e-05 11.039 -20.0218 -3.82119 -3.91811e-05 -41.2464 
96.193 69.355 14.602 120.647 -88.4995 -49.0417 0 -0 0 -2.00544 -8.10189 18.475 18.6228 -12.6283 2.97335e-05 57.2516 -26.3195 -39.4306 -2.54019e-08 4.806 -6.05313e-07 -0.543002 20.3247 -0.097298 -13.0186 18.3719 -3.94274e-05 -63.3489 24.47 -21.4349 5.13167e-08 -9.61483 -6.10165e-07 6.84181 -6.84744 -0.409805 3.62281 2.2856 -45.2539 11.9067 -7.33689 -115.15 -0 -0 76.5513 2.06421e-05 -3.6305 -15.9651 0.999783 -5.98477e-06 -58.5106 -12.8917 2.13947 -114.098 -0 -0 76.6972 6.94667e-05 11.0846 -20.1606 -3.86291 7.28252e-05 -41.3386 
96.032 69.311 14.618 121.891 -88.5141 -50.1364 0 -0 0 -1.99681 -8.11763 18.4108 18.666 -12.6267 5.91404e-05 57.3287 -26.1555 -39.3457 -0 4.92985 -0 -0.5794 20.2897 -0.103699 -13.0875 18.3755 -3.9842e-05 -63.4545 24.3416 -21.1994 0 -9.89717 -0 6.74574 -6.78876 -0.400602 3.61653 2.28868 -45.3495 11.9012 -7.33416 -115.224 -0 -0 76.6697 8.89126e-06 -3.6395 -16.1618 1.01432 3.88809e-06 -58.5609 -12.9373 2.13161 -114.192 -0 -0 76.8633 -2.1022e-05 11.1303 -20.3123 -3.90695 2.53454e-05 -41.408 
95.872 69.272 14.632 122.923 -88.4998 -50.9709 0 -0 0 -1.98157 -8.12764 18.2805 18.7227 -12.6581 6.20745e-05 57.3981 -25.9923 -39.2121 -0 5.07428 -0 -0.62309 20.2409 -0.111199 -13.16 18.3721 -3.67663e-05 -63.5485 24.2248 -20.9515 0 -10.1752 -0 6.67653 -6.68404 -0.390305 3.62413 2.2681 -45.4219 11.8869 -7.32414 -115.334 -0 -0 76.7767 4.47147e-06 -3.65683 -16.3832 1.03271 1.91952e-06 -58.5112 -12.9778 2.10865 -114.322 -0 -0 77.0179 -2.57357e-05 11.1768 -20.4591 -3.95072 -3.12182e-05 -41.476 
95.708 69.235 14.645 123.905 -88.5095 -51.7724 0 -0 0 -1.9658 -8.14307 18.1775 18.7736 -12.6859 -1.0771e-06 57.4811 -25.8048 -39.1096 -0 5.20954 -0 -0.638495 20.2059 -0.1138 -13.2334 18.376 -9.76472e-05 -63.6543 24.0898 -20.7224 0 -10.4442 -0 6.56558 -6.58882 -0.378309 3.63661 2.24847 -45.4933 11.8651 -7.31449 -115.414 -0 -0 76.8781 -7.96455e-06 -3.68217 -16.6217 1.05462 1.00852e-06 -58.4523 -13.0082 2.09483 -114.433 -0 -0 77.1725 6.90798e-05 11.2164 -20.6189 -3.99469 -1.67074e-06 -41.5313 
95.542 69.2 14.656 124.738 -88.4624 -52.4225 0 -0 0 -1.95082 -8.16152 18.0767 18.8256 -12.7266 7.92755e-05 57.5713 -25.5942 -38.9999 -0 5.34556 -0 -0.641303 20.1791 -0.114103 -13.3083 18.3773 1.74095e-05 -63.7616 23.9434 -20.4987 0 -10.7085 -0 6.44809 -6.48177 -0.365494 3.65596 2.22469 -45.5618 11.8341 -7.30707 -115.487 -0 -0 76.974 -1.16139e-05 -3.71152 -16.8734 1.07871 1.56864e-06 -58.3746 -13.0314 2.07959 -114.538 -0 -0 77.3229 -1.42724e-05 11.2469 -20.788 -4.03696 1.90589e-05 -41.5865 
95.372 69.169 14.666 125.246 -88.4674 -52.7501 0 -0 0 -1.9343 -8.18665 17.9742 18.8805 -12.779 -0.000135931 57.6708 -25.3595 -38.878 -0 5.48884 -0 -0.63241 20.1569 -0.112402 -13.3889 18.3777 2.21018e-05 -63.8688 23.7838 -20.2771 0 -10.9716 -0 6.32625 -6.3666 -0.352203 3.67624 2.20211 -45.6295 11.7957 -7.3049 -115.556 -0 -0 77.0676 7.75239e-06 -3.74255 -17.1298 1.10379 4.21766e-06 -58.2974 -13.0488 2.0611 -114.636 -0 -0 77.4662 -1.78348e-05 11.2671 -20.9606 -4.07652 3.97014e-05 -41.6535 
95.199 69.139 14.675 125.467 -88.4511 -52.7879 0 -0 0 -1.91699 -8.21995 17.8714 18.9366 -12.8409 9.80491e-05 57.7787 -25.1026 -38.732 -2.98671e-08 5.64398 -6.05915e-07 -0.617012 20.1383 -0.109605 -13.4768 18.3734 6.04349e-06 -63.9726 23.6125 -20.0547 0 -11.238 -0 6.20832 -6.24443 -0.339006 3.69281 2.18421 -45.7005 11.75 -7.30973 -115.621 -0 -0 77.1596 -1.65958e-05 -3.77384 -17.3817 1.12891 1.87266e-06 -58.2396 -13.0638 2.0383 -114.728 -0 -0 77.6034 -8.34638e-05 11.2767 -21.1356 -4.11223 3.31788e-05 -41.7435 
95.02 69.11 14.682 125.462 -88.4058 -52.6226 0 -0 0 -1.901 -8.26156 17.8037 18.9895 -12.9026 8.47096e-05 57.9045 -24.814 -38.586 -0 5.79587 -0 -0.587196 20.1316 -0.104199 -13.5701 18.3647 -1.92571e-05 -64.0808 23.4227 -19.8374 6.18013e-08 -11.5141 -6.12998e-07 6.08235 -6.1299 -0.325995 3.70038 2.17908 -45.7854 11.704 -7.32432 -115.66 -0 -0 77.2533 -1.28057e-05 -3.80304 -17.6254 1.15309 -6.20995e-06 -58.24 -13.0782 2.02093 -114.792 -0 -0 77.7402 2.69493e-05 11.2743 -21.3145 -4.14453 1.6806e-05 -41.8488 
94.838 69.086 14.686 124.936 -88.3841 -51.8977 0 -0 0 -1.88156 -8.30616 17.6769 19.0633 -12.9977 -3.55726e-05 58.0238 -24.5218 -38.3244 -0 5.99333 -0 -0.589199 20.0966 -0.1044 -13.6748 18.3469 -9.63035e-05 -64.163 23.2254 -19.593 0 -11.7985 -0 6.02826 -5.98198 -0.315302 3.70191 2.17149 -45.8679 11.6481 -7.34606 -115.73 -0 -0 77.3415 8.45008e-06 -3.83445 -17.8597 1.17761 -1.23977e-06 -58.2176 -13.0987 1.98103 -114.88 -0 -0 77.8536 -1.96901e-05 11.2672 -21.4747 -4.17145 5.29207e-05 -42.0099 
94.65 69.061 14.688 124.174 -88.379 -50.9622 0 -0 0 -1.86105 -8.35879 17.5813 19.1332 -13.0831 -4.29753e-05 58.1627 -24.2051 -38.0554 -3.28083e-08 6.19406 -6.06371e-07 -0.585601 20.0628 -0.103602 -13.7865 18.3222 0.000165699 -64.2471 23.0087 -19.3509 6.50835e-08 -12.1016 -6.13993e-07 5.97288 -5.84895 -0.305404 3.68717 2.18032 -45.9659 11.593 -7.37495 -115.771 -0 -0 77.4295 -9.78811e-06 -3.86696 -18.0831 1.20199 -6.85487e-07 -58.2577 -13.1222 1.94744 -114.94 -0 -0 77.9666 -2.4293e-05 11.2548 -21.633 -4.19584 3.07736e-05 -42.1951 
94.454 69.036 14.686 123.18 -88.3431 -49.7973 0 -0 0 -1.83695 -8.41596 17.4858 19.2084 -13.1665 0.000143968 58.3102 -23.8764 -37.7446 -0 6.41145 -0 -0.593208 20.0126 -0.1047 -13.91 18.2918 -1.85936e-05 -64.3215 22.7724 -19.1007 6.6894e-08 -12.4243 -6.14558e-07 5.94174 -5.72041 -0.297095 3.65838 2.19901 -46.072 11.5386 -7.40949 -115.801 -0 -0 77.5173 -1.25081e-05 -3.90508 -18.3015 1.228 3.70417e-06 -58.3207 -13.1513 1.91228 -114.989 -0 -0 78.0739 -1.31485e-05 11.2426 -21.7794 -4.21803 -2.69989e-05 -42.4135 
94.251 69.011 14.681 121.929 -88.3408 -48.3861 0 -0 0 -1.80844 -8.47242 17.3948 19.2918 -13.2489 3.07498e-05 58.4627 -23.5299 -37.4039 -3.51462e-08 6.63032 -6.06756e-07 -0.612492 19.9523 -0.107697 -14.0404 18.2558 0.000163046 -64.3859 22.511 -18.8444 0 -12.7655 -0 5.93902 -5.59481 -0.290501 3.61894 2.22423 -46.185 11.4857 -7.44641 -115.812 -0 -0 77.6016 -1.59359e-05 -3.95232 -18.5234 1.25739 1.00611e-06 -58.3881 -13.1851 1.87977 -115.027 -0 -0 78.1812 -5.79802e-05 11.2336 -21.9155 -4.23967 2.32231e-05 -42.6577 
94.04 68.983 14.671 120.476 -88.3088 -46.7785 0 -0 0 -1.7739 -8.52876 17.3017 19.3814 -13.3243 -6.70595e-05 58.6186 -23.1702 -37.0487 -0 6.85194 -0 -0.646105 19.8742 -0.113199 -14.1809 18.2166 0.000111498 -64.4388 22.2226 -18.5876 7.08701e-08 -13.1288 -6.15861e-07 5.95452 -5.47985 -0.285199 3.57209 2.25377 -46.3007 11.4324 -7.48343 -115.805 -0 -0 77.6854 -2.13021e-05 -4.01268 -18.7574 1.29218 -1.38243e-06 -58.4442 -13.2199 1.85031 -115.051 -0 -0 78.2902 3.8542e-06 11.2321 -22.0395 -4.26177 -1.90852e-05 -42.9263 
93.819 68.954 14.657 118.914 -88.281 -45.0725 0 -0 0 -1.73302 -8.58169 17.2103 19.4809 -13.3895 4.56622e-05 58.7733 -22.7894 -36.7004 -3.74709e-08 7.06284 -6.07177e-07 -0.694009 19.7845 -0.120999 -14.3296 18.1763 2.684e-05 -64.4775 21.8981 -18.334 0 -13.5107 -0 5.98436 -5.37713 -0.281305 3.52475 2.28321 -46.4197 11.379 -7.51858 -115.775 -0 -0 77.7696 -1.84318e-06 -4.08916 -19.0135 1.33425 1.12265e-05 -58.4731 -13.254 1.82806 -115.065 -0 -0 78.4098 -6.68573e-05 11.2393 -22.1558 -4.28576 5.24829e-06 -43.2141 
93.588 68.922 14.638 117.175 -88.288 -43.2073 0 -0 0 -1.68525 -8.62964 17.1184 19.5911 -13.4456 0.000156225 58.9204 -22.382 -36.3844 -0 7.25116 -0 -0.756806 19.6903 -0.131305 -14.4858 18.1373 2.27468e-05 -64.5023 21.5314 -18.0912 0 -13.91 -0 6.02282 -5.28723 -0.278302 3.48497 2.30787 -46.539 11.3241 -7.55143 -115.718 -0 -0 77.8571 1.0683e-05 -4.18346 -19.2978 1.38473 2.65494e-05 -58.4628 -13.2815 1.81474 -115.066 -0 -0 78.5421 -1.9711e-05 11.2559 -22.2655 -4.31234 3.15367e-05 -43.5164 
93.346 68.886 14.615 115.368 -88.2783 -41.2914 0 -0 0 -1.63685 -8.67068 17.0345 19.7155 -13.4904 -7.60122e-05 59.0597 -21.9398 -36.1278 -0 7.40834 -0 -0.836396 19.5961 -0.1444 -14.6464 18.0961 3.55156e-05 -64.5151 21.1209 -17.8639 0 -14.3315 -0 6.06556 -5.21117 -0.276297 3.46287 2.32277 -46.6601 11.2625 -7.58336 -115.629 -0 -0 77.9538 2.86295e-05 -4.2948 -19.6153 1.44412 6.40246e-06 -58.4097 -13.3004 1.81233 -115.05 -0 -0 78.694 1.01635e-05 11.2801 -22.3737 -4.34166 -7.05976e-05 -43.8351 
93.093 68.848 14.587 113.236 -88.2816 -39.0627 0 -0 0 -1.56952 -8.70524 16.9439 19.8526 -13.5307 0.000111871 59.1782 -21.4463 -35.9448 -0 7.52195 -0 -0.93691 19.5145 -0.1611 -14.8201 18.0646 0.000110554 -64.5077 20.6437 -17.6699 8.01796e-08 -14.7578 -6.19136e-07 6.10539 -5.15172 -0.274908 3.45864 2.32529 -46.7894 11.2049 -7.60929 -115.517 -0 -0 78.0575 -7.68454e-06 -4.42353 -19.9618 1.51281 -9.87229e-06 -58.321 -13.294 1.82267 -115.025 -0 -0 78.8673 -7.22335e-05 11.3093 -22.4787 -4.3725 1.16161e-05 -44.1766 
92.826 68.808 14.556 110.972 -88.2887 -36.7289 0 -0 0 -1.50491 -8.73664 16.862 20.0088 -13.5598 0.000108623 59.2804 -20.9012 -35.8511 -4.03544e-08 7.59792 -6.07728e-07 -1.06579 19.4504 -0.182697 -14.9986 18.0343 -5.29719e-05 -64.4864 20.1077 -17.5003 0 -15.2062 -0 6.14926 -5.0969 -0.273996 3.48438 2.31392 -46.9327 11.1383 -7.64002 -115.372 -0 -0 78.1775 -1.12081e-05 -4.56289 -20.3341 1.58862 2.16626e-05 -58.2185 -13.2677 1.84276 -114.975 -0 -0 79.0639 2.13446e-05 11.3401 -22.5862 -4.40458 -4.72301e-05 -44.535 
92.546 68.766 14.521 108.463 -88.3228 -34.1847 0 -0 0 -1.43399 -8.75702 16.7863 20.184 -13.5834 4.70681e-05 59.3631 -20.2895 -35.864 -0 7.62749 -0 -1.2246 19.4175 -0.209495 -15.184 17.9972 -5.9483e-05 -64.453 19.5065 -17.3711 0 -15.671 -0 6.19668 -5.05646 -0.273896 3.53998 2.28337 -47.0986 11.0688 -7.67226 -115.192 -0 -0 78.3119 6.90076e-06 -4.71033 -20.7214 1.66988 -1.11581e-05 -58.1265 -13.213 1.87882 -114.901 -0 -0 79.2851 -3.24191e-05 11.368 -22.696 -4.43575 4.08897e-05 -44.9314 
92.251 68.725 14.483 105.739 -88.3076 -31.4349 0 -0 0 -1.36211 -8.77449 16.7181 20.3804 -13.598 5.66031e-05 59.4285 -19.6147 -35.9561 -0 7.63468 -0 -1.43165 19.4125 -0.244885 -15.3749 17.9569 -4.04357e-05 -64.401 18.8368 -17.2766 8.83211e-08 -16.1559 -6.22296e-07 6.25744 -5.01762 -0.274396 3.62365 2.23808 -47.2998 10.9954 -7.71287 -114.98 -0 -0 78.4624 -1.68297e-05 -4.85914 -21.1082 1.75363 6.34585e-06 -58.0772 -13.1294 1.92533 -114.797 -0 -0 79.5254 3.73132e-06 11.3911 -22.8048 -4.46506 2.35085e-05 -45.367 
